<?xml version="1.0" encoding="utf-8"?>
<svg version="1.1" id="Layer_1" xmlns="http://www.w3.org/2000/svg" x="0px" y="0px" viewBox="467.496 -22.8 53.808 51.384" style="enable-background:new 434.7 -22.8 119.4 151.4;" xmlns:bx="https://boxy-svg.com">
  <defs>
    <bx:guide x="495.149" y="-5.874" angle="90"/>
    <bx:guide x="494.404" y="5.657" angle="90"/>
    <bx:guide x="494.404" y="33.743" angle="0"/>
  </defs>
  <style type="text/css">
  .st0{fill:#206B33;}
 </style>
  <title>
  dmart_logo_avenue_super_markets
 </title>
  <g>
    <g id="g48"/>
    <g id="g54">
      <g id="g60">
        <path id="path62" class="st0" d="M494.4-22.8c-5.1,26.9-1.6,21.6-26.7,19.4c24.7,11.6,22.4,6,10.2,31.4 c10.7-8.9,16.1-16,16.5-23.9c0.5,7.9,5.8,15,16.5,23.9C498.8,2.7,496.5,8.3,521.2-3.3C496.1-1.1,499.6,4.1,494.4-22.8" style="fill: rgb(63, 67, 143);"/>
      </g>
      <g id="g64">
        <path id="path66" class="st0" d="M507.4-12.6c-1.6-1.2-4-0.9-5.2,0.8c-1.2,1.6-0.9,4,0.8,5.2c1.6,1.2,4,0.9,5.2-0.8c0,0,0,0,0,0 C509.4-9,509.1-11.4,507.4-12.6" style="fill: rgb(63, 67, 143);"/>
      </g>
      <g id="g68">
        <path id="path70" class="st0" d="M481.4-12.6c1.6-1.2,4-0.9,5.2,0.8s0.9,4-0.8,5.2s-4,0.9-5.2-0.8c0,0,0,0,0,0 C479.4-9,479.8-11.3,481.4-12.6C481.4-12.6,481.4-12.6,481.4-12.6" style="fill: rgb(63, 67, 143);"/>
        <path id="path-1" class="st0" d="M 477.496 6.384 C 479.096 5.184 481.496 5.484 482.696 7.184 C 483.896 8.884 483.596 11.184 481.896 12.384 C 480.196 13.584 477.896 13.284 476.696 11.584 C 476.696 11.584 476.696 11.584 476.696 11.584 C 475.496 9.984 475.896 7.684 477.496 6.384 C 477.496 6.384 477.496 6.384 477.496 6.384" style="stroke-width: 1; fill: rgb(63, 67, 143);"/>
        <path id="path-2" class="st0" d="M 506.884 6.384 C 508.484 5.184 510.884 5.484 512.084 7.184 C 513.284 8.884 512.984 11.184 511.284 12.384 C 509.584 13.584 507.284 13.284 506.084 11.584 C 506.084 11.584 506.084 11.584 506.084 11.584 C 504.884 9.984 505.284 7.684 506.884 6.384 C 506.884 6.384 506.884 6.384 506.884 6.384" style="stroke-width: 1; fill: rgb(63, 67, 143);"/>
        <path id="path-3" class="st0" d="M 492.186 17.165 C 493.786 15.965 496.186 16.265 497.386 17.965 C 498.586 19.665 498.286 21.965 496.586 23.165 C 494.886 24.365 492.586 24.065 491.386 22.365 C 491.386 22.365 491.386 22.365 491.386 22.365 C 490.186 20.765 490.586 18.465 492.186 17.165 C 492.186 17.165 492.186 17.165 492.186 17.165" style="stroke-width: 1; fill: rgb(63, 67, 143);"/>
      </g>
    </g>
  </g>
</svg>